<svg xmlns="http://www.w3.org/2000/svg" xmlns:xlink="http://www.w3.org/1999/xlink"><defs><style>
    .sprite-symbol-usage {display: none;}
    .sprite-symbol-usage:target {display: inline;}
  </style><symbol preserveAspectRatio="xMidYMid meet" viewBox="0 0 440 512" id="01"><g transform="matrix(.1 0 0 -.1 0 512)"><path d="m928 5095c-17-17-29-45-37-88-75-395-382-703-773-777-49-9-75-20-94-38l-26-27 5-355c3-291 8-385 26-520 71-529 218-1013 449-1475 96-193 144-277 260-454 364-559 813-996 1358-1324 107-64 126-59 374 107 246 163 431 318 660 552 689 703 1117 1606 1246 2629 11 89 18 241 21 485l5 355-26 26c-18 18-45 30-89 38-395 75-703 382-777 773-8 48-20 75-37 93l-26 25h-1247-1247zm2397-232c109-390 402-690 788-808l87-27v-52c-1-173-22-534-39-666-152-1177-765-2235-1681-2901-131-96-262-179-280-179-19 0-173 100-306 198-901 667-1505 1718-1655 2882-17 132-38 493-39 667v52l57 16c390 109 690 402 808 788l27 87h1108 1109z" /><path d="m1362 4500c-12-12-32-40-43-63-121-237-398-514-636-635-22-12-51-34-63-49-21-27-22-34-16-149 36-702 303-1454 734-2067 169-241 441-531 662-707 202-160 197-160 402 0 112 87 381 352 481 473 371 449 637 964 791 1537 61 227 111 542 122 765 6 114 5 121-16 148-12 15-41 37-63 49-240 121-514 395-636 635-11 23-31 51-43 63-22 20-31 20-838 20s-816 0-838-20zm1576-238c121-212 324-422 557-575 50-32 91-60 93-61 6-6-30-308-49-416-151-855-614-1668-1252-2198l-87-73-113 94c-656 550-1127 1428-1246 2322-11 83-22 177-26 211l-6 61 60 37c230 141 413 321 568 559l64 97h702l702-1z" /></g></symbol><symbol preserveAspectRatio="xMidYMid meet" viewBox="0 0 440 420" id="02"><path d="m2160 4193c-8-3-24-14-36-24-11-10-161-304-333-652l-313-633-676-98c-372-54-695-102-717-106-81-18-113-109-62-178 12-17 244-246 514-508 271-263 493-483 493-490 0-6-52-314-115-683-63-370-115-690-115-711 0-30 7-48 29-72 26-29 35-33 78-32s110 34 665 327c340 180 622 327 628 327s294-149 641-331c581-306 632-331 667-326 53 9 92 55 92 110 0 23-52 347-116 721l-116 679 303 295c167 163 400 391 517 507l212 211v48c0 64-35 101-106 112-27 4-346 51-709 103l-660 96-319 642c-291 586-322 643-351 658-33 15-67 18-95 8zm321-926c229-464 281-565 305-578 20-11 230-46 641-105 337-49 613-91 613-94s-199-199-442-435c-272-266-446-442-455-463-12-30-5-83 92-648 58-339 104-618 103-619-2-2-160 80-353 181-746 394-752 397-798 391-29-3-206-91-582-289-297-157-541-282-543-278-1 3 45 282 102 619 95 553 104 616 92 645-8 18-194 207-460 466l-446 435 612 87c337 49 627 95 644 102 27 13 58 69 288 533 142 285 267 539 278 566 11 26 23 47 27 47 3 0 130-254 282-563z" transform="matrix(.1 0 0 -.1 0 420)" /></symbol><symbol preserveAspectRatio="xMidYMid meet" viewBox="0 0 444 512" id="03"><g transform="matrix(.1 0 0 -.1 0 512)"><path d="m1233 5114c-29-12-338-394-509-630-391-539-629-1002-705-1368-19-89-20-124-16-301 5-162 10-223 31-322 56-262 145-447 292-603 120-127 246-209 414-270 311-114 760-116 1070-5 436 157 692 523 745 1065 12 124 7 323-10 419-60 341-300 818-673 1336-202 281-502 653-543 675-18 10-75 12-96 4zm88-266c416-501 767-1033 924-1403 104-245 134-374 135-574 0-451-154-802-435-986-196-128-490-190-791-165-533 43-839 312-946 830-29 141-36 409-13 520 84 420 398 969 948 1658 71 89 133 162 136 162 4 0 23-19 42-42z" /><path d="m383 3150c-34-14-43-40-55-162-18-193 14-444 79-607 109-275 342-460 632-501 85-12 135 3 151 45 27 72-9 120-98 131-242 29-436 180-520 407-52 138-77 345-63 512 7 76 6 108-4 132-20 48-67 65-122 43z" /><path d="m3634 3581c-35-15-209-220-331-391-206-288-331-534-384-755-34-144-20-391 31-560 60-195 191-357 350-433 125-60 208-77 375-76 166 0 241 16 365 76 122 58 229 168 294 299 67 136 96 260 103 441 6 159-1 219-43 352-76 239-248 529-497 839-158 197-204 233-263 208zm143-353c223-280 388-562 455-778 20-66 23-94 22-235-1-131-5-175-23-240-59-220-161-337-347-401-70-24-94-27-209-28-97 0-145 4-189 18-202 61-317 186-377 411-18 66-22 109-23 245 0 160 1 168 31 257 59 170 174 380 320 584 84 119 222 289 234 289 5 0 53-55 106-122z" /><path d="m3949 2361c-28-29-29-29-23-123 5-81 3-101-16-153-14-36-37-74-59-94-50-47-147-91-232-103-85-13-120-37-121-86-2-81 49-110 163-93 158 25 314 116 377 221 49 83 72 167 72 269 0 143-25 191-98 191-24 0-42-9-63-29z" /><path d="m2428 1700c-21-13-154-178-234-290-123-175-234-377-279-509-85-252-31-566 128-737 105-113 238-164 432-164s326 50 433 164c91 98 140 217 162 391 30 237-45 456-273 795-86 128-249 335-276 349-24 14-71 14-93 1zm144-350c150-203 243-366 295-517 22-65 26-94 25-173-3-317-144-480-417-480-254 0-388 134-414 414-13 141 8 231 93 399 82 163 311 497 327 479 4-4 45-59 91-122z" /><path d="m2252 754c-50-35-73-150-48-238 27-92 115-176 185-176 43 0 60 9 76 41 27 51 20 78-36 129s-57 56-44 157c7 47 5 54-18 77-30 30-80 35-115 10z" /></g></symbol><symbol preserveAspectRatio="xMidYMid meet" viewBox="0 0 496 488" id="04"><g transform="matrix(.1 0 0 -.1 0 488)"><path d="m3552 4859c-116-45-192-163-192-299 0-130 64-236 175-290 72-36 189-40 268-10 121 46 197 161 197 300 0 190-132 321-323 319-47 0-90-7-125-20zm206-169c130-79 74-280-78-280-85 0-150 65-150 150s65 150 150 150c27 0 58-8 78-20z" /><path d="m1152 4699c-116-45-192-163-192-299 0-130 64-236 175-290 72-36 189-40 268-10 262 98 263 501 2 599-74 28-180 28-253 0zm206-169c130-79 74-280-78-280-85 0-150 65-150 150s65 150 150 150c27 0 58-8 78-20z" /><path d="m3335 4141c-87-40-135-120-135-223 1-142 97-238 240-238 144 0 240 96 240 240 0 104-53 187-142 224-52 22-153 20-203-3zm155-171c11-11 20-33 20-50s-9-39-20-50-33-20-50-20-39 9-50 20-20 33-20 50 9 39 20 50 33 20 50 20 39-9 50-20z" /><path d="m263 3981c-105-39-180-107-231-211-25-50-27-65-27-170 0-107 2-119 29-175 38-77 114-153 191-191 56-27 68-29 175-29s119 2 175 29c77 38 153 114 191 191 27 56 29 68 29 175s-2 119-29 175c-38 77-114 153-191 190-52 26-73 30-160 33-79 2-111-2-152-17zm225-167c153-63 191-267 71-381-147-139-389-36-389 167 0 90 51 169 135 213 39 21 135 21 183 1z" /><path d="m1415 3981c-87-40-135-120-135-223 1-142 97-238 240-238 144 0 240 96 240 240 0 104-53 187-142 224-52 22-153 20-203-3zm155-171c11-11 20-33 20-50s-9-39-20-50-33-20-50-20-39 9-50 20-20 33-20 50 9 39 20 50 33 20 50 20 39-9 50-20z" /><path d="m4423 3981c-105-39-180-107-231-211-25-50-27-65-27-170 0-107 2-119 29-175 38-77 114-153 191-191 56-27 68-29 175-29s119 2 175 29c77 38 153 114 191 191 27 56 29 68 29 175s-2 119-29 175c-38 77-114 153-191 190-52 26-73 30-160 33-79 2-111-2-152-17zm225-167c153-63 191-267 71-381-147-139-389-36-389 167 0 90 51 169 135 213 39 21 135 21 183 1z" /><path d="m2367 3425c-83-31-177-127-192-196l-7-29h-96c-53 0-196-5-317-10-1151-51-1755-183-1755-381 0-47 718-2528 752-2599 30-63 112-141 183-176l60-29h1485 1485l60 29c72 35 153 114 183 177 34 70 752 2550 752 2597 0 144-305 250-920 321-293 34-891 71-1152 71h-96l-7 29c-8 36-59 110-103 146-73 61-221 84-315 50zm191-175c130-79 74-280-78-280-85 0-150 65-150 150s65 150 150 150c27 0 58-8 78-20zm-371-269c28-60 89-123 151-153 39-19 63-23 142-23s103 4 142 23c62 31 123 93 151 155l22 50 220-7c720-21 1374-95 1663-187 50-17 92-34 92-38 0-21-209-79-399-110-503-85-1081-122-1891-122-852 0-1499 45-1975 137-141 28-315 79-315 94s174 66 320 95c257 50 663 93 1070 115 113 6 230 12 260 13 30 2 116 4 190 5l135 2zm-1586-465c252-41 511-68 944-97 249-17 1307-23 1620-10 649 28 1149 82 1457 160 92 23 109 25 105 12-2-9-38-130-78-269-73-253-74-253-99-247-14 3-68 8-120 11-156 10-263-24-400-126-108-80-148-94-270-94s-161 14-269 93c-127 94-232 131-371 131s-244-37-371-131c-108-79-147-93-269-93s-161 14-269 93c-127 94-232 131-371 131s-244-37-371-131c-108-79-147-93-269-93s-161 14-269 93c-139 103-246 137-401 127-52-3-106-8-120-11-25-6-26-6-99 247-40 139-76 260-78 269-4 13 13 11 105-12 60-15 178-39 263-53zm113-634c27-12 78-44 115-71 127-94 232-131 371-131s244 37 371 131c108 79 147 93 269 93s161-14 269-93c127-94 232-131 371-131s244 37 371 131c108 79 147 93 269 93s161-14 269-93c133-98 227-131 374-131 118 0 219 29 307 89 30 21 79 54 108 74 66 45 137 67 218 67 82 0 124-9 124-27 0-23-450-1564-465-1593-20-39-87-96-131-111-58-21-2830-21-2888 0-44 15-111 72-131 111-15 29-465 1571-465 1594 0 20 29 25 135 22 67-2 102-8 139-24z" /><path d="m1050 1351c-57-18-113-55-172-111l-63-59 62-62 62-63 63 61c53 50 73 62 116 72 109 23 194 5 268-56 93-77 124-88 254-88 111 0 117 1 176 33 33 18 85 58 115 88l54 54-63 62-62 63-59-59c-46-46-70-61-110-72-69-18-135-1-190 49-22 20-64 49-93 64-50 26-62 28-193 30-77 1-151-1-165-6z" /><path d="m3600 1280v-80h80 80v80 80h-80-80z" /><path d="m2400 960v-80h80 80v80 80h-80-80z" /><path d="m2810 791c-57-18-113-55-172-111l-63-59 62-62 62-63 63 61c53 50 73 62 116 72 109 23 194 5 268-56 93-77 124-88 254-88 111 0 117 1 176 33 33 18 85 58 115 88l54 54-63 62-62 63-59-59c-46-46-70-61-110-72-69-18-135-1-190 49-22 20-64 49-93 64-50 26-62 28-193 30-77 1-151-1-165-6z" /><path d="m1920 640v-80h80 80v80 80h-80-80z" /><path d="m1040 560v-80h80 80v80 80h-80-80z" /></g></symbol><symbol viewBox="0 0 260 80" id="button"><path d="m0 80v-80h235l25 25v55z" fill="#ffd824" fill-rule="evenodd" /></symbol><symbol viewBox="0 0 90 40" id="online">
    <defs>
        <style>#online .cls-1{fill:transparent;stroke:rgba(24,24,24,.06);stroke-miterlimit:10}</style>
    </defs>
    <path class="cls-1" d="M0.5 0.5L89.5 0.5 89.5 39.5 13.5 39.5 0.5 27.5 0.5 0.5z" />
</symbol></defs><use id="01-usage" xlink:href="#01" class="sprite-symbol-usage" /><use id="02-usage" xlink:href="#02" class="sprite-symbol-usage" /><use id="03-usage" xlink:href="#03" class="sprite-symbol-usage" /><use id="04-usage" xlink:href="#04" class="sprite-symbol-usage" /><use id="button-usage" xlink:href="#button" class="sprite-symbol-usage" /><use id="online-usage" xlink:href="#online" class="sprite-symbol-usage" /></svg>