<svg height="512pt" preserveAspectRatio="xMidYMid meet" viewBox="0 0 440 512" width="440pt" xmlns="http://www.w3.org/2000/svg"><g transform="matrix(.1 0 0 -.1 0 512)"><path d="m928 5095c-17-17-29-45-37-88-75-395-382-703-773-777-49-9-75-20-94-38l-26-27 5-355c3-291 8-385 26-520 71-529 218-1013 449-1475 96-193 144-277 260-454 364-559 813-996 1358-1324 107-64 126-59 374 107 246 163 431 318 660 552 689 703 1117 1606 1246 2629 11 89 18 241 21 485l5 355-26 26c-18 18-45 30-89 38-395 75-703 382-777 773-8 48-20 75-37 93l-26 25h-1247-1247zm2397-232c109-390 402-690 788-808l87-27v-52c-1-173-22-534-39-666-152-1177-765-2235-1681-2901-131-96-262-179-280-179-19 0-173 100-306 198-901 667-1505 1718-1655 2882-17 132-38 493-39 667v52l57 16c390 109 690 402 808 788l27 87h1108 1109z"/><path d="m1362 4500c-12-12-32-40-43-63-121-237-398-514-636-635-22-12-51-34-63-49-21-27-22-34-16-149 36-702 303-1454 734-2067 169-241 441-531 662-707 202-160 197-160 402 0 112 87 381 352 481 473 371 449 637 964 791 1537 61 227 111 542 122 765 6 114 5 121-16 148-12 15-41 37-63 49-240 121-514 395-636 635-11 23-31 51-43 63-22 20-31 20-838 20s-816 0-838-20zm1576-238c121-212 324-422 557-575 50-32 91-60 93-61 6-6-30-308-49-416-151-855-614-1668-1252-2198l-87-73-113 94c-656 550-1127 1428-1246 2322-11 83-22 177-26 211l-6 61 60 37c230 141 413 321 568 559l64 97h702l702-1z"/></g></svg>