<svg height="420pt" preserveAspectRatio="xMidYMid meet" viewBox="0 0 440 420" width="440pt" xmlns="http://www.w3.org/2000/svg"><path d="m2160 4193c-8-3-24-14-36-24-11-10-161-304-333-652l-313-633-676-98c-372-54-695-102-717-106-81-18-113-109-62-178 12-17 244-246 514-508 271-263 493-483 493-490 0-6-52-314-115-683-63-370-115-690-115-711 0-30 7-48 29-72 26-29 35-33 78-32s110 34 665 327c340 180 622 327 628 327s294-149 641-331c581-306 632-331 667-326 53 9 92 55 92 110 0 23-52 347-116 721l-116 679 303 295c167 163 400 391 517 507l212 211v48c0 64-35 101-106 112-27 4-346 51-709 103l-660 96-319 642c-291 586-322 643-351 658-33 15-67 18-95 8zm321-926c229-464 281-565 305-578 20-11 230-46 641-105 337-49 613-91 613-94s-199-199-442-435c-272-266-446-442-455-463-12-30-5-83 92-648 58-339 104-618 103-619-2-2-160 80-353 181-746 394-752 397-798 391-29-3-206-91-582-289-297-157-541-282-543-278-1 3 45 282 102 619 95 553 104 616 92 645-8 18-194 207-460 466l-446 435 612 87c337 49 627 95 644 102 27 13 58 69 288 533 142 285 267 539 278 566 11 26 23 47 27 47 3 0 130-254 282-563z" transform="matrix(.1 0 0 -.1 0 420)"/></svg>