<svg height="512pt" preserveAspectRatio="xMidYMid meet" viewBox="0 0 444 512" width="444pt" xmlns="http://www.w3.org/2000/svg"><g transform="matrix(.1 0 0 -.1 0 512)"><path d="m1233 5114c-29-12-338-394-509-630-391-539-629-1002-705-1368-19-89-20-124-16-301 5-162 10-223 31-322 56-262 145-447 292-603 120-127 246-209 414-270 311-114 760-116 1070-5 436 157 692 523 745 1065 12 124 7 323-10 419-60 341-300 818-673 1336-202 281-502 653-543 675-18 10-75 12-96 4zm88-266c416-501 767-1033 924-1403 104-245 134-374 135-574 0-451-154-802-435-986-196-128-490-190-791-165-533 43-839 312-946 830-29 141-36 409-13 520 84 420 398 969 948 1658 71 89 133 162 136 162 4 0 23-19 42-42z"/><path d="m383 3150c-34-14-43-40-55-162-18-193 14-444 79-607 109-275 342-460 632-501 85-12 135 3 151 45 27 72-9 120-98 131-242 29-436 180-520 407-52 138-77 345-63 512 7 76 6 108-4 132-20 48-67 65-122 43z"/><path d="m3634 3581c-35-15-209-220-331-391-206-288-331-534-384-755-34-144-20-391 31-560 60-195 191-357 350-433 125-60 208-77 375-76 166 0 241 16 365 76 122 58 229 168 294 299 67 136 96 260 103 441 6 159-1 219-43 352-76 239-248 529-497 839-158 197-204 233-263 208zm143-353c223-280 388-562 455-778 20-66 23-94 22-235-1-131-5-175-23-240-59-220-161-337-347-401-70-24-94-27-209-28-97 0-145 4-189 18-202 61-317 186-377 411-18 66-22 109-23 245 0 160 1 168 31 257 59 170 174 380 320 584 84 119 222 289 234 289 5 0 53-55 106-122z"/><path d="m3949 2361c-28-29-29-29-23-123 5-81 3-101-16-153-14-36-37-74-59-94-50-47-147-91-232-103-85-13-120-37-121-86-2-81 49-110 163-93 158 25 314 116 377 221 49 83 72 167 72 269 0 143-25 191-98 191-24 0-42-9-63-29z"/><path d="m2428 1700c-21-13-154-178-234-290-123-175-234-377-279-509-85-252-31-566 128-737 105-113 238-164 432-164s326 50 433 164c91 98 140 217 162 391 30 237-45 456-273 795-86 128-249 335-276 349-24 14-71 14-93 1zm144-350c150-203 243-366 295-517 22-65 26-94 25-173-3-317-144-480-417-480-254 0-388 134-414 414-13 141 8 231 93 399 82 163 311 497 327 479 4-4 45-59 91-122z"/><path d="m2252 754c-50-35-73-150-48-238 27-92 115-176 185-176 43 0 60 9 76 41 27 51 20 78-36 129s-57 56-44 157c7 47 5 54-18 77-30 30-80 35-115 10z"/></g></svg>