<svg height="488pt" preserveAspectRatio="xMidYMid meet" viewBox="0 0 496 488" width="496pt" xmlns="http://www.w3.org/2000/svg"><g transform="matrix(.1 0 0 -.1 0 488)"><path d="m3552 4859c-116-45-192-163-192-299 0-130 64-236 175-290 72-36 189-40 268-10 121 46 197 161 197 300 0 190-132 321-323 319-47 0-90-7-125-20zm206-169c130-79 74-280-78-280-85 0-150 65-150 150s65 150 150 150c27 0 58-8 78-20z"/><path d="m1152 4699c-116-45-192-163-192-299 0-130 64-236 175-290 72-36 189-40 268-10 262 98 263 501 2 599-74 28-180 28-253 0zm206-169c130-79 74-280-78-280-85 0-150 65-150 150s65 150 150 150c27 0 58-8 78-20z"/><path d="m3335 4141c-87-40-135-120-135-223 1-142 97-238 240-238 144 0 240 96 240 240 0 104-53 187-142 224-52 22-153 20-203-3zm155-171c11-11 20-33 20-50s-9-39-20-50-33-20-50-20-39 9-50 20-20 33-20 50 9 39 20 50 33 20 50 20 39-9 50-20z"/><path d="m263 3981c-105-39-180-107-231-211-25-50-27-65-27-170 0-107 2-119 29-175 38-77 114-153 191-191 56-27 68-29 175-29s119 2 175 29c77 38 153 114 191 191 27 56 29 68 29 175s-2 119-29 175c-38 77-114 153-191 190-52 26-73 30-160 33-79 2-111-2-152-17zm225-167c153-63 191-267 71-381-147-139-389-36-389 167 0 90 51 169 135 213 39 21 135 21 183 1z"/><path d="m1415 3981c-87-40-135-120-135-223 1-142 97-238 240-238 144 0 240 96 240 240 0 104-53 187-142 224-52 22-153 20-203-3zm155-171c11-11 20-33 20-50s-9-39-20-50-33-20-50-20-39 9-50 20-20 33-20 50 9 39 20 50 33 20 50 20 39-9 50-20z"/><path d="m4423 3981c-105-39-180-107-231-211-25-50-27-65-27-170 0-107 2-119 29-175 38-77 114-153 191-191 56-27 68-29 175-29s119 2 175 29c77 38 153 114 191 191 27 56 29 68 29 175s-2 119-29 175c-38 77-114 153-191 190-52 26-73 30-160 33-79 2-111-2-152-17zm225-167c153-63 191-267 71-381-147-139-389-36-389 167 0 90 51 169 135 213 39 21 135 21 183 1z"/><path d="m2367 3425c-83-31-177-127-192-196l-7-29h-96c-53 0-196-5-317-10-1151-51-1755-183-1755-381 0-47 718-2528 752-2599 30-63 112-141 183-176l60-29h1485 1485l60 29c72 35 153 114 183 177 34 70 752 2550 752 2597 0 144-305 250-920 321-293 34-891 71-1152 71h-96l-7 29c-8 36-59 110-103 146-73 61-221 84-315 50zm191-175c130-79 74-280-78-280-85 0-150 65-150 150s65 150 150 150c27 0 58-8 78-20zm-371-269c28-60 89-123 151-153 39-19 63-23 142-23s103 4 142 23c62 31 123 93 151 155l22 50 220-7c720-21 1374-95 1663-187 50-17 92-34 92-38 0-21-209-79-399-110-503-85-1081-122-1891-122-852 0-1499 45-1975 137-141 28-315 79-315 94s174 66 320 95c257 50 663 93 1070 115 113 6 230 12 260 13 30 2 116 4 190 5l135 2zm-1586-465c252-41 511-68 944-97 249-17 1307-23 1620-10 649 28 1149 82 1457 160 92 23 109 25 105 12-2-9-38-130-78-269-73-253-74-253-99-247-14 3-68 8-120 11-156 10-263-24-400-126-108-80-148-94-270-94s-161 14-269 93c-127 94-232 131-371 131s-244-37-371-131c-108-79-147-93-269-93s-161 14-269 93c-127 94-232 131-371 131s-244-37-371-131c-108-79-147-93-269-93s-161 14-269 93c-139 103-246 137-401 127-52-3-106-8-120-11-25-6-26-6-99 247-40 139-76 260-78 269-4 13 13 11 105-12 60-15 178-39 263-53zm113-634c27-12 78-44 115-71 127-94 232-131 371-131s244 37 371 131c108 79 147 93 269 93s161-14 269-93c127-94 232-131 371-131s244 37 371 131c108 79 147 93 269 93s161-14 269-93c133-98 227-131 374-131 118 0 219 29 307 89 30 21 79 54 108 74 66 45 137 67 218 67 82 0 124-9 124-27 0-23-450-1564-465-1593-20-39-87-96-131-111-58-21-2830-21-2888 0-44 15-111 72-131 111-15 29-465 1571-465 1594 0 20 29 25 135 22 67-2 102-8 139-24z"/><path d="m1050 1351c-57-18-113-55-172-111l-63-59 62-62 62-63 63 61c53 50 73 62 116 72 109 23 194 5 268-56 93-77 124-88 254-88 111 0 117 1 176 33 33 18 85 58 115 88l54 54-63 62-62 63-59-59c-46-46-70-61-110-72-69-18-135-1-190 49-22 20-64 49-93 64-50 26-62 28-193 30-77 1-151-1-165-6z"/><path d="m3600 1280v-80h80 80v80 80h-80-80z"/><path d="m2400 960v-80h80 80v80 80h-80-80z"/><path d="m2810 791c-57-18-113-55-172-111l-63-59 62-62 62-63 63 61c53 50 73 62 116 72 109 23 194 5 268-56 93-77 124-88 254-88 111 0 117 1 176 33 33 18 85 58 115 88l54 54-63 62-62 63-59-59c-46-46-70-61-110-72-69-18-135-1-190 49-22 20-64 49-93 64-50 26-62 28-193 30-77 1-151-1-165-6z"/><path d="m1920 640v-80h80 80v80 80h-80-80z"/><path d="m1040 560v-80h80 80v80 80h-80-80z"/></g></svg>